<svg xmlns="http://www.w3.org/2000/svg" width="13" height="14.625" viewBox="0 0 13 14.625">
  <path id="copy_120015" d="M7.25,6.25v.812H6.031A1.219,1.219,0,0,0,4.812,8.281v7.312a1.219,1.219,0,0,0,1.219,1.219h5.687a1.219,1.219,0,0,0,1.219-1.219V14.374h.812v1.219a2.031,2.031,0,0,1-2.031,2.031H6.031A2.031,2.031,0,0,1,4,15.593V8.281A2.031,2.031,0,0,1,6.031,6.25Zm6.5-2.437H9.281A1.219,1.219,0,0,0,8.062,5.031v7.312a1.219,1.219,0,0,0,1.219,1.219h5.687a1.219,1.219,0,0,0,1.219-1.219V6.25H14.156a.406.406,0,0,1-.406-.406ZM17,5.866v6.477a2.031,2.031,0,0,1-2.031,2.031H9.281A2.031,2.031,0,0,1,7.25,12.343V5.031A2.031,2.031,0,0,1,9.281,3h4.852a.4.4,0,0,1,.31.119L16.88,5.556A.4.4,0,0,1,17,5.866Zm-2.437-.429h1.05l-1.05-1.05Zm-4.468,5.687a.406.406,0,0,1,0-.812h1.625a.406.406,0,1,1,0,.812Zm0-1.625a.406.406,0,0,1,0-.812h4.062a.406.406,0,1,1,0,.812Zm0-1.625a.406.406,0,0,1,0-.812h4.062a.406.406,0,1,1,0,.812Z" transform="translate(-4 -2.999)" fill="#4489f1"/>
</svg>
