<svg xmlns="http://www.w3.org/2000/svg" width="14" height="15.534" viewBox="0 0 14 15.534">
  <g id="document_1" data-name="document 1" transform="translate(-3.5 -1.5)">
    <path id="패스_1616" data-name="패스 1616" d="M5.559,2.24a1.178,1.178,0,0,0-1.235,1.11V15.185a1.178,1.178,0,0,0,1.235,1.11h9.882a1.178,1.178,0,0,0,1.235-1.11v-8.2a1.066,1.066,0,0,0-.431-.842L11.518,2.507a1.321,1.321,0,0,0-.8-.267ZM3.5,3.349A1.963,1.963,0,0,1,5.559,1.5h5.155a2.2,2.2,0,0,1,1.34.445l4.727,3.639a1.777,1.777,0,0,1,.719,1.4v8.2a1.963,1.963,0,0,1-2.059,1.849H5.559A1.963,1.963,0,0,1,3.5,15.185Z" fill-rule="evenodd"/>
    <path id="패스_1617" data-name="패스 1617" d="M12.5,6V2.5h1V6A1.5,1.5,0,0,0,15,7.5h4.5v1H15A2.5,2.5,0,0,1,12.5,6Z" transform="translate(-3)" fill-rule="evenodd"/>
    <path id="패스_1619" data-name="패스 1619" d="M11.5,15.5H7v-1h4.5Z" transform="translate(-0.84 -4.445)" fill-rule="evenodd"/>
    <path id="패스_1620" data-name="패스 1620" d="M14,18.5H7v-1h7Z" transform="translate(-1.05 -5.265)" fill-rule="evenodd"/>
  </g>
</svg>
