<svg xmlns="http://www.w3.org/2000/svg" width="13.622" height="11.477" viewBox="0 0 13.622 11.477">
  <path id="패스_1613" data-name="패스 1613" d="M3.665,6.082C3,6.747,3,7.817,3,9.957v2.4c0,2.14,0,3.211.665,3.876s1.735.665,3.876.665h4.541c2.14,0,3.211,0,3.876-.665s.665-1.735.665-3.876v-2.4c0-2.14,0-3.211-.665-3.876s-1.735-.665-3.876-.665H7.541C5.4,5.417,4.33,5.417,3.665,6.082Zm2.048,2A.757.757,0,0,0,4.827,9.31l4.1,2.959a1.513,1.513,0,0,0,1.772,0l4.1-2.959a.757.757,0,1,0-.886-1.227l-4.1,2.959Z" transform="translate(-3 -5.417)" fill="#939393" fill-rule="evenodd"/>
</svg>
