<svg id="그룹_11273" data-name="그룹 11273" xmlns="http://www.w3.org/2000/svg" width="14" height="17.231" viewBox="0 0 14 17.231">
  <path id="패스_1494" data-name="패스 1494" d="M724.638,619.618a7.032,7.032,0,0,1,7,7.048,8.323,8.323,0,0,1-1.071,3.882,16.048,16.048,0,0,1-2.286,3.181,23.109,23.109,0,0,1-3.3,3.007.594.594,0,0,1-.693,0,23.1,23.1,0,0,1-3.3-3.007,16.027,16.027,0,0,1-2.286-3.181,8.324,8.324,0,0,1-1.071-3.882A7.032,7.032,0,0,1,724.638,619.618Zm0,15.875c1.3-1.024,5.806-4.861,5.806-8.828a5.806,5.806,0,1,0-11.612,0C718.832,630.639,723.337,634.47,724.637,635.494Z" transform="translate(-717.638 -619.618)" fill="#222"/>
  <path id="타원_26" data-name="타원 26" d="M1.846-.75a2.6,2.6,0,1,1-2.6,2.6A2.6,2.6,0,0,1,1.846-.75Zm0,4.15A1.554,1.554,0,1,0,.293,1.846,1.555,1.555,0,0,0,1.846,3.4Z" transform="translate(5.154 5.091)" fill="#222"/>
</svg>
