<svg xmlns="http://www.w3.org/2000/svg" width="13.622" height="15.378" viewBox="0 0 13.622 15.378">
  <g id="그룹_11390" data-name="그룹 11390" transform="translate(0 1)">
    <path id="패스_1614" data-name="패스 1614" d="M14.054,6.784V6.027A3.027,3.027,0,0,0,11.027,3h0A3.027,3.027,0,0,0,8,6.027v.757" transform="translate(-4.216 -3)" fill="none" stroke="#222" stroke-linecap="round" stroke-width="2"/>
    <path id="패스_1615" data-name="패스 1615" d="M3.665,7.665C3,8.33,3,9.4,3,11.541V12.3c0,2.854,0,4.281.887,5.167s2.314.887,5.167.887h1.514c2.854,0,4.281,0,5.167-.887s.887-2.314.887-5.167v-.757c0-2.14,0-3.211-.665-3.876S14.221,7,12.081,7H7.541C5.4,7,4.33,7,3.665,7.665Zm6.146,5.389a.757.757,0,1,0-.757-.757A.757.757,0,0,0,9.811,13.054Zm2.27-.757a2.271,2.271,0,0,1-1.514,2.141v1.643H9.054V14.438A2.271,2.271,0,1,1,12.081,12.3Z" transform="translate(-3 -3.973)" fill="#222" fill-rule="evenodd"/>
  </g>
</svg>
