<svg xmlns="http://www.w3.org/2000/svg" width="14" height="13.998" viewBox="0 0 14 13.998">
  <path id="패스_1511" data-name="패스 1511" d="M405.154,187.112A7.145,7.145,0,0,1,400.07,185l-2.262-2.263a7.185,7.185,0,0,1-1.092-8.781,1.677,1.677,0,0,1,1.433-.846,1.765,1.765,0,0,1,1.237.531l.016.016,1.36,1.36a2.293,2.293,0,0,1,0,3.243,1.51,1.51,0,0,0,0,2.132l1.653,1.652a1.506,1.506,0,0,0,2.131,0,2.293,2.293,0,0,1,3.243,0l1.379,1.38a1.734,1.734,0,0,1,.514,1.43,1.689,1.689,0,0,1-.831,1.23A7.236,7.236,0,0,1,405.5,187.1C405.383,187.109,405.268,187.112,405.154,187.112Zm-7.005-13.018a.69.69,0,0,0-.593.37,6.2,6.2,0,0,0,.945,7.584l2.262,2.263a6.172,6.172,0,0,0,4.392,1.822c.1,0,.2,0,.3-.007a6.252,6.252,0,0,0,2.9-.878.709.709,0,0,0,.364-.512.754.754,0,0,0-.242-.622l-.015-.015-1.357-1.357a1.313,1.313,0,0,0-1.857,0,2.486,2.486,0,0,1-3.517,0l-1.653-1.652a2.491,2.491,0,0,1,0-3.518,1.313,1.313,0,0,0,0-1.857l-1.372-1.372A.794.794,0,0,0,398.149,174.094Z" transform="translate(-395.695 -173.114)" fill="#222"/>
</svg>
