<svg xmlns="http://www.w3.org/2000/svg" width="14" height="14" viewBox="0 0 14 14">
  <g id="그룹_11274" data-name="그룹 11274" transform="translate(-427.693 -173.116)">
    <path id="타원_31" data-name="타원 31" d="M6.25-.75a7,7,0,0,1,7,7,7,7,0,0,1-7,7,7,7,0,0,1-7-7,7,7,0,0,1,7-7Zm0,13.023A6.023,6.023,0,1,0,.227,6.25,6.03,6.03,0,0,0,6.25,12.273Z" transform="translate(428.443 173.866)" fill="#222"/>
    <path id="선_40" data-name="선 40" d="M-.3,3.4A.448.448,0,0,1-.75,2.948V-.3A.448.448,0,0,1-.3-.75.448.448,0,0,1,.145-.3V2.948A.448.448,0,0,1-.3,3.4Z" transform="translate(434.995 176.95)" fill="#222"/>
    <path id="선_41" data-name="선 41" d="M-.3,3.489A.448.448,0,0,1-.75,3.041V-.3A.448.448,0,0,1-.3-.75.448.448,0,0,1,.145-.3V3.041A.448.448,0,0,1-.3,3.489Z" transform="translate(434.995 176.848)" fill="#222"/>
    <path id="선_42" data-name="선 42" d="M1.485,1.932A.446.446,0,0,1,1.168,1.8L-.619.014a.448.448,0,0,1,0-.633.448.448,0,0,1,.633,0L1.8,1.168a.448.448,0,0,1-.317.764Z" transform="translate(435.098 180.522)" fill="#222"/>
  </g>
</svg>
