<svg xmlns="http://www.w3.org/2000/svg" width="13" height="13.193" viewBox="0 0 13 13.193">
  <path id="scissors-solid" class="cls-1" d="M6.6,4.947,5.579,3.929A2.887,2.887,0,1,0,2.886,5.772a2.921,2.921,0,0,0,1.044-.193L4.947,6.6,3.929,7.614a2.887,2.887,0,1,0,1.842,2.693,2.921,2.921,0,0,0-.193-1.044l7.284-7.284a.465.465,0,0,0,0-.66,1.865,1.865,0,0,0-2.639,0Zm.582,3.88,3.046,3.046a1.865,1.865,0,0,0,2.639,0,.465.465,0,0,0,0-.66L8.828,7.179ZM4.123,2.886A1.237,1.237,0,1,1,2.886,1.649,1.237,1.237,0,0,1,4.123,2.886ZM2.886,11.544a1.237,1.237,0,1,1,1.237-1.237A1.237,1.237,0,0,1,2.886,11.544Z"/>
</svg>