<svg xmlns="http://www.w3.org/2000/svg" width="14.961" height="12.471" viewBox="0 0 14.961 12.471">
  <g id="group_11289" data-name="group 11289" transform="translate(-745.07 -233.533)">
    <g id="group_11286" data-name="group 11286" transform="translate(746.089 234.552)">
      <path id="karpass_1517" data-name="karpass 1517" class="cls-1" d="M757.29,245.253l-.5.5a.822.822,0,0,1-1.121.04l-8-6.924,2.736-2.736,6.924,8A.824.824,0,0,1,757.29,245.253Z" transform="translate(-746.923 -235.387)"/>
      <path id="karpass_1518" data-name="karpass 1518" class="cls-2" d="M755.853,246.15a1.327,1.327,0,0,1-.872-.324l-8.411-7.282,3.51-3.509,7.282,8.412a1.338,1.338,0,0,1-.065,1.814l-.5.5A1.332,1.332,0,0,1,755.853,246.15Zm-7.789-7.66,7.584,6.566a.314.314,0,0,0,.428-.015l.5-.5a.316.316,0,0,0,.016-.428l-6.566-7.584Z" transform="translate(-746.57 -235.034)"/>
    </g>
    <g id="group_11287" data-name="group 11287" transform="translate(745.07 233.533)">
      <circle id="won_41" data-name="won 41" class="cls-1" cx="2.871" cy="2.871" r="2.871" transform="translate(0.508 0.508)"/>
      <path id="karpass_1519" data-name="karpass 1519" class="cls-2" d="M748.448,240.29a3.38,3.38,0,1,1,2.39-5.769h0a3.379,3.379,0,0,1-2.39,5.769Zm0-5.739a2.36,2.36,0,1,0,1.67.69A2.356,2.356,0,0,0,748.448,234.552Z" transform="translate(-745.07 -233.533)"/>
    </g>
    <path id="karpass_1520" data-name="karpass 1520" class="cls-2" d="M746.825,239.84a.509.509,0,0,1-.36-.869l4.053-4.053a.509.509,0,0,1,.721.72l-4.053,4.053A.508.508,0,0,1,746.825,239.84Z" transform="translate(-0.4 -0.397)"/>
    <g id="group_11288" data-name="group 11288" transform="translate(755.36 236.351)">
      <path id="karpass_1521" data-name="karpass 1521" class="cls-2" d="M762.868,248.756a2.263,2.263,0,0,1-1.605-.664.509.509,0,1,1,.721-.72,1.252,1.252,0,1,0,1.77-1.771l-2.623-2.623a.509.509,0,0,1,.721-.72l2.623,2.623a2.269,2.269,0,0,1-1.606,3.875Z" transform="translate(-760.467 -239.104)"/>
      <path id="karpass_1522" data-name="karpass 1522" class="cls-2" d="M763.87,244.33a.505.505,0,0,1-.36-.149l-2.623-2.622a2.271,2.271,0,0,1,3.211-3.211l.646.646a.509.509,0,0,1-.72.72l-.646-.646a1.252,1.252,0,0,0-1.77,1.77l2.623,2.623a.509.509,0,0,1-.361.869Z" transform="translate(-760.223 -237.683)"/>
      <path id="karpass_1523" data-name="karpass 1523" class="cls-3" d="M765.4,239.191" transform="translate(-761.884 -238.167)"/>
    </g>
  </g>
</svg>
