<svg xmlns="http://www.w3.org/2000/svg" width="13" height="10.669" viewBox="0 0 13 10.669">
  <g id="meat" transform="translate(0.001 -17.161)">
    <g id="그룹_11462" data-name="그룹 11462" transform="translate(-0.001 17.161)">
      <path id="meatpass_1629" data-name="meatpass 1629" class="cls-1" d="M12.986,18.926a1.767,1.767,0,0,0-.321-.978,1.79,1.79,0,0,0-1.609-.783,12.63,12.63,0,0,0-2.884.745l-.5.168a4.757,4.757,0,0,1-1.316.183,10.38,10.38,0,0,0-2.61.4A5.137,5.137,0,0,0,.3,21.163,3.2,3.2,0,0,0,.007,22.5L0,22.506v1.4a3.75,3.75,0,0,0,.335,1.538A4.592,4.592,0,0,0,4.4,27.83a4.5,4.5,0,0,0,3.212-1.371A7.15,7.15,0,0,0,9,24.633a7.905,7.905,0,0,1,.846-1.266,3.405,3.405,0,0,1,1.31-.882,2.838,2.838,0,0,0,1.76-1.623A1.458,1.458,0,0,0,13,20.3l0-1.36A.1.1,0,0,0,12.986,18.926ZM.934,21.459a4.48,4.48,0,0,1,3-2.119,9.629,9.629,0,0,1,2.449-.378,5.337,5.337,0,0,0,1.5-.218l.506-.169a12.223,12.223,0,0,1,2.7-.71l.073,0a1.109,1.109,0,0,1,.917.487.978.978,0,0,1,.162.867c-.254.694-.758.929-1.4,1.227A4.077,4.077,0,0,0,9.3,21.517a8.5,8.5,0,0,0-.914,1.366A6.436,6.436,0,0,1,7.12,24.554,3.812,3.812,0,0,1,4.4,25.722,3.9,3.9,0,0,1,.976,23.757,2.74,2.74,0,0,1,.934,21.459Z" transform="translate(0.001 -17.161)"/>
      <path id="meatpass_1630" data-name="meatpass 1630" class="cls-1" d="M23.744,43.548a3.44,3.44,0,0,0,2.292-.857,5.265,5.265,0,0,0,1.181-1.347,8.184,8.184,0,0,1,1.015-1.3,4.94,4.94,0,0,1,1.858-1.123c.686-.276.92-.394,1.065-.738a.3.3,0,0,0-.08-.2.446.446,0,0,0-.351-.167,13.666,13.666,0,0,0-2.629.6l-.526.152a7.1,7.1,0,0,1-1.741.225,10.7,10.7,0,0,0-2.361.311,3.988,3.988,0,0,0-2.642,1.545,1.6,1.6,0,0,0,.049,1.526A3.423,3.423,0,0,0,23.744,43.548Zm-.064-3.461c.943,0,1.708.462,1.708,1.034s-.765,1.033-1.708,1.033-1.709-.463-1.709-1.033S22.736,40.086,23.68,40.086Z" transform="translate(-19.405 -36.568)"/>
    </g>
  </g>
</svg>
