<svg xmlns="http://www.w3.org/2000/svg" width="10.13" height="13.507" viewBox="0 0 10.13 13.507">
  <path id="buil" class="cls-1" d="M2.321,2.744a.422.422,0,0,1,.422-.422H4.01a.423.423,0,0,1,.422.422V4.01a.423.423,0,0,1-.422.422H2.744a.423.423,0,0,1-.422-.422Zm5.065-.422a.423.423,0,0,1,.422.422V4.01a.423.423,0,0,1-.422.422H6.12A.423.423,0,0,1,5.7,4.01V2.744a.423.423,0,0,1,.422-.422ZM2.321,6.12A.423.423,0,0,1,2.744,5.7H4.01a.423.423,0,0,1,.422.422V7.386a.423.423,0,0,1-.422.422H2.744a.423.423,0,0,1-.422-.422ZM7.386,5.7a.423.423,0,0,1,.422.422V7.386a.423.423,0,0,1-.422.422H6.12A.423.423,0,0,1,5.7,7.386V6.12A.423.423,0,0,1,6.12,5.7ZM0,1.688A1.688,1.688,0,0,1,1.688,0H8.442A1.689,1.689,0,0,1,10.13,1.688v10.13a1.69,1.69,0,0,1-1.688,1.688H1.688A1.689,1.689,0,0,1,0,11.818Zm1.266,0v10.13a.423.423,0,0,0,.422.422H3.8V10.552a1.266,1.266,0,1,1,2.533,0V12.24h2.11a.423.423,0,0,0,.422-.422V1.688a.423.423,0,0,0-.422-.422H1.688A.422.422,0,0,0,1.266,1.688Z"/>
</svg>
