<svg xmlns="http://www.w3.org/2000/svg" width="9.12" height="14.007" viewBox="0 0 9.12 14.007">
  <g id="restgroup_11285" data-name="restgroup 11285" transform="translate(-658.177 -173.116)">
    <path id="restline_82" data-name="restline 82" class="cls-1" d="M-.261,6.88A.489.489,0,0,1-.75,6.392V-.261A.489.489,0,0,1-.261-.75a.489.489,0,0,1,.489.489V6.392A.489.489,0,0,1-.261,6.88Z" transform="translate(660.621 173.866)"/>
    <path id="restpass_1517" data-name="restpass 1517" class="cls-1" d="M660.36,177.749a2.185,2.185,0,0,1-2.183-2.183V173.6a.489.489,0,0,1,.977,0v1.961a1.206,1.206,0,1,0,2.411,0V173.6a.489.489,0,0,1,.977,0v1.961A2.185,2.185,0,0,1,660.36,177.749Z" transform="translate(0 0)"/>
    <path id="restsagag_82" data-name="restsagag 82" class="cls-1" d="M-.75-.75H1.959v6a1.355,1.355,0,0,1-2.709,0ZM.982.227H.227V5.249a.377.377,0,0,0,.755,0Z" transform="translate(659.755 180.519)"/>
    <path id="restsagag_83" data-name="restsagag 83" class="cls-1" d="M-.75-.75H1.959V3.392a1.355,1.355,0,0,1-2.709,0ZM.982.227H.227V3.392a.377.377,0,0,0,.755,0Z" transform="translate(664.27 182.376)"/>
    <path id="restsagag_84" data-name="restsagag 84" class="cls-1" d="M.237-.75a2.793,2.793,0,0,1,2.79,2.79V7.6a1.141,1.141,0,0,1-1.14,1.14H-.75V.237A.988.988,0,0,1,.237-.75Zm1.65,8.51A.163.163,0,0,0,2.049,7.6V2.04A1.815,1.815,0,0,0,.237.227a.01.01,0,0,0-.01.01V7.76Z" transform="translate(664.27 173.866)"/>
  </g>
</svg>
