<svg xmlns="http://www.w3.org/2000/svg" width="13.997" height="14.003" viewBox="0 0 13.997 14.003">
  <g id="express_11298" class="express" transform="translate(-1041.456 -197.35)">
    <path id="express_1524"  class="cls-1" d="M1041.945,204.61h13.02a.489.489,0,0,1,.489.488v6.67a2.109,2.109,0,0,1-2.117,2.117h-9.763a2.119,2.119,0,0,1-2.117-2.117V205.1A.489.489,0,0,1,1041.945,204.61Zm12.531.977h-12.043v6.181a1.141,1.141,0,0,0,1.14,1.14h9.763a1.128,1.128,0,0,0,1.14-1.14Z" transform="translate(0 -2.531)"/>
    <path id="express_1525"  class="cls-1" d="M1054.964,203.056h-13.02a.489.489,0,0,1-.471-.618l.97-3.53a2.127,2.127,0,0,1,2.041-1.557h7.94a2.127,2.127,0,0,1,2.04,1.556l.971,3.531a.489.489,0,0,1-.471.618Zm-12.379-.977h11.738l-.8-2.912a1.146,1.146,0,0,0-1.1-.839h-7.94a1.147,1.147,0,0,0-1.1.841Z" transform="translate(0 0)"/>
    <path id="line_84"  class="cls-1" d="M-.261,4.956H-.284a.488.488,0,0,1-.466-.51L-.535-.284A.489.489,0,0,1-.024-.75a.489.489,0,0,1,.466.51L.226,4.489A.489.489,0,0,1-.261,4.956Z" transform="translate(1047.282 198.1)"/>
    <path id="line_85"  class="cls-1" d="M-.053,4.956a.488.488,0,0,1-.488-.467L-.75-.24A.488.488,0,0,1-.283-.75a.488.488,0,0,1,.51.467L.435,4.446a.488.488,0,0,1-.467.51Z" transform="translate(1049.948 198.1)"/>
    <path id="line_86"  class="cls-1" d="M2.707.227H-.262A.488.488,0,0,1-.75-.262.488.488,0,0,1-.262-.75H2.707A.488.488,0,0,1,3.2-.262.488.488,0,0,1,2.707.227Z" transform="translate(1050.019 209.127)"/>
    <path id="line_88"  class="cls-1" d="M-.262-.75H2.612A.488.488,0,0,1,3.1-.262V2.361a.488.488,0,0,1-.488.488H-.262A.488.488,0,0,1-.75,2.361V-.262A.488.488,0,0,1-.262-.75ZM2.124.227H.227V1.872h1.9Z" transform="translate(1047.282 202.829)"/>
  </g>
</svg>
